<svg xmlns="http://www.w3.org/2000/svg" viewBox="0 0 220 60" width="220" height="60">
  <!-- Lemon Icon -->
  <g transform="translate(5, 0)">
    <!-- Leaf -->
    <path d="M 32,10 C 37,2 45,5 45,5 C 45,5 40,15 34,14 Z" fill="#495E57" />
    <!-- Small stem -->
    <path d="M 30,18 C 30,18 31,13 34,13" stroke="#495E57" stroke-width="2.5" fill="none" stroke-linecap="round" />
    <!-- Lemon Body -->
    <path d="M 12,28 C 8,24 10,18 18,15 C 28,12 42,20 44,28 C 46,36 40,43 32,45 C 22,48 14,40 12,28 Z" fill="#F4CE14" />
    <!-- Lemon highlights/details -->
    <path d="M 16,28 C 14,24 16,20 22,18" stroke="#ffffff" stroke-width="2" fill="none" stroke-linecap="round" opacity="0.6" />
    <circle cx="28" cy="30" r="1.5" fill="#cca90e" />
    <circle cx="34" cy="35" r="1.5" fill="#cca90e" />
    <circle cx="22" cy="36" r="1.5" fill="#cca90e" />
  </g>
  <!-- Text "Little Lemon" -->
  <text x="62" y="26" font-family="'Karla', sans-serif" font-weight="800" font-size="18" fill="#495E57" letter-spacing="0.5">LITTLE</text>
  <text x="62" y="48" font-family="'Markazi Text', serif" font-weight="700" font-size="28" fill="#F4CE14" letter-spacing="1">LEMON</text>
</svg>
